<svg
  xmlns="http://www.w3.org/2000/svg"
  viewBox="0 0 80 80"
>
  <path
    fill="currentColor"
    d="M 0 -0.37890625 C -0.20947418 -0.3794142 -0.3794142 -0.20947418 -0.37890625 0 L -0.37890625 80 C -0.3794142 80.209474 -0.20947418 80.379414 0 80.378906 L 80 80.378906 C 80.209474 80.379414 80.379414 80.209474 80.378906 80 L 80.378906 0 C 80.379414 -0.20947418 80.209474 -0.3794142 80 -0.37890625 L 0 -0.37890625 z M 16.396484 30.855469 L 18.123047 30.855469 L 18.123047 36.222656 L 22.611328 36.222656 L 22.611328 37.955078 L 18.123047 37.955078 L 18.123047 43.322266 C 18.133691 45.80406 20.136772 47.813579 22.611328 47.824219 L 22.611328 49.556641 C 19.183015 49.5466 16.406624 46.76053 16.396484 43.322266 L 16.396484 30.855469 z M 44.333984 37.089844 C 47.10688 37.116886 49.574618 39.005403 50.285156 41.765625 L 48.476562 41.765625 C 47.689068 39.625071 45.428839 38.414578 43.216797 38.947266 C 41.004755 39.480014 39.541113 41.587678 39.808594 43.853516 C 40.076133 46.119233 41.990761 47.82629 44.265625 47.826172 C 46.144677 47.823872 47.824092 46.650032 48.476562 44.882812 L 50.285156 44.882812 C 49.502799 47.921861 46.588992 49.903264 43.484375 49.507812 C 40.379638 49.112302 38.052734 46.462966 38.052734 43.324219 C 38.052734 40.185412 40.379638 37.536077 43.484375 37.140625 C 43.678414 37.115915 43.872381 37.10025 44.064453 37.09375 C 44.154487 37.090716 44.244536 37.088971 44.333984 37.089844 z M 30.335938 37.091797 C 33.768406 37.091797 36.552675 39.88189 36.552734 43.324219 C 36.552734 46.766608 33.770238 49.556581 30.337891 49.556641 C 26.905542 49.556641 24.123107 46.766667 24.123047 43.324219 C 24.122987 39.881949 26.90353 37.091917 30.335938 37.091797 z M 57.998047 37.091797 C 61.430514 37.091797 64.214724 39.88189 64.214844 43.324219 C 64.214844 46.766608 61.432407 49.556581 58 49.556641 C 54.567653 49.556641 51.783384 46.766667 51.783203 43.324219 C 51.783144 39.881949 54.565638 37.091917 57.998047 37.091797 z M 30.335938 38.822266 C 27.856893 38.822266 25.847656 40.838003 25.847656 43.324219 C 25.847656 45.810436 27.856893 47.826172 30.335938 47.826172 C 32.813784 47.823302 34.823572 45.80942 34.826172 43.324219 C 34.826172 40.838003 32.81498 38.822266 30.335938 38.822266 z M 57.998047 38.822266 C 55.519122 38.822266 53.509766 40.838003 53.509766 43.324219 C 53.509766 45.810436 55.519122 47.826172 57.998047 47.826172 C 60.476015 47.823302 62.485481 45.80942 62.488281 43.324219 C 62.488281 40.838003 60.477091 38.822266 57.998047 38.822266 z"
  />
</svg>
