<svg
  xmlns="http://www.w3.org/2000/svg"
  viewBox="0 0 333.596 333.596"
>
  <path
    fill="currentColor"
    d="m 210.374,201.122 c -1.496,12.868 -9.297,23.287 -21.379,28.438 -6.77,2.854 -15.811,4.418 -23.063,3.953 -11.157,-0.465 -21.61601,-3.229 -31.37801,-8.137 -3.377,-1.859 -8.581,-5.344 -12.551,-8.598 -0.979,-0.93 -1.143,-1.395 -0.433,-2.357 0.312,-0.564 1.009,-1.596 2.438,-3.686 2.179,-3.081 2.412,-3.488 2.644,-3.883 0.697,-1 1.759,-1.091 2.869,-0.301 0.15201,0.155 0.15201,0.155 0.23601,0.23 0.14799,0.162 0.14799,0.162 0.54599,0.465 0.411,0.315 0.709,0.465 0.782,0.643 10.461,8.189 22.63801,12.838 34.93101,13.303 17.063,-0.23 29.325,-7.902 31.584,-19.758 2.326,-12.903 -7.843,-24.167 -27.729,-30.448 -6.265,-1.859 -22.031,-8.156 -24.94201,-9.908 -13.629,-7.983 -20.026,-18.461 -19.096,-31.455 1.395,-17.958 18.078,-31.324 39.16301,-31.441 9.359,0 18.793,1.951 27.743,5.716 3.228,1.373 8.989,4.494 10.905,5.986 1.15,0.852 1.395,1.781 0.686,2.822 -0.236,0.635 -0.93,1.581 -2.128,3.609 v 0 c -1.747,2.664 -1.812,2.775 -2.129,3.361 -0.622,0.978 -1.511,1.056 -2.695,0.356 -9.566,-6.506 -20.356,-9.762 -32.145,-9.994 -14.643,0.232 -25.65301,8.96 -26.36201,20.919 -0.146,10.743 7.877,18.569 25.25201,24.462 35.339,11.385 48.819,24.686 46.251,45.703 M 166.798,15.737 c 22.96,0 41.717,21.785 42.646,49.095 h -85.23701 c 0.82,-27.31 19.632,-49.095 42.59101,-49.095 m 119.001,54.269 c 0,-2.85 -2.206,-5.174 -5.021,-5.174 h -0.184 -55.101 C 224.099,28.8 198.325,0 166.798,0 135.252,0 109.545,28.8 108.17,64.832 H 52.838007 c -2.775,0.063 -4.977,2.336 -4.977,5.174 0,0.164 0,0.236 0,0.4 h -0.063 l 7.859,173.798 c 0,0.47 0.092,0.944 0.092,1.509 0,0.11 0.015,0.144 0.015,0.351 v 0.266 l 0.058,0.092 c 1.183,12.117 9.936989,21.777 21.900989,22.25 v 0.092 H 253.232 c 0.092,0 0.146,0 0.237,0 0.136,0 0.136,0 0.236,0 h 0.364 v -0.092 c 12.134,-0.295 22.069,-10.133 23.016,-22.383 v 0 l 0.053,-0.225 c 0,-0.115 0,-0.24 0,-0.351 0,-0.354 0.092,-0.579 0.092,-0.947 l 8.569,-174.524 v 0 c 0,-0.064 0,-0.163 0,-0.236"
  />
</svg>
