<?xml version="1.0" encoding="UTF-8" standalone="no"?>
<!-- Generator: Adobe Illustrator 13.0.0, SVG Export Plug-In . SVG Version: 6.00 Build 14948)  -->

<svg
   version="1.1"
   id="Layer_1"
   x="0px"
   y="0px"
   width="194.9763"
   height="194.49712"
   viewBox="0 0 194.9763 194.49711"
   enable-background="new 0 0 405.661 316.98"
   xml:space="preserve"
   sodipodi:docname="Logo-bw-vertical1.svg"
   inkscape:version="1.4 (86a8ad7, 2024-10-11)"
   xmlns:inkscape="http://www.inkscape.org/namespaces/inkscape"
   xmlns:sodipodi="http://sodipodi.sourceforge.net/DTD/sodipodi-0.dtd"
   xmlns="http://www.w3.org/2000/svg"
   xmlns:svg="http://www.w3.org/2000/svg"><defs
   id="defs11" /><sodipodi:namedview
   id="namedview11"
   pagecolor="#ffffff"
   bordercolor="#000000"
   borderopacity="0.25"
   inkscape:showpageshadow="2"
   inkscape:pageopacity="0.0"
   inkscape:pagecheckerboard="0"
   inkscape:deskcolor="#d1d1d1"
   inkscape:zoom="2.57114"
   inkscape:cx="77.203107"
   inkscape:cy="96.260801"
   inkscape:window-width="1920"
   inkscape:window-height="1017"
   inkscape:window-x="1432"
   inkscape:window-y="982"
   inkscape:window-maximized="1"
   inkscape:current-layer="g3" />

<g
   id="g3"
   transform="translate(-112.956,-10.627886)">
	<path
   fill-rule="evenodd"
   clip-rule="evenodd"
   d="m 112.95601,205.125 c 5.281,-17.05 11.402,-33.26 16.998,-49.994 -37.095004,-64.878 8.812,-137.915 70.991,-143.982 31.97125,-3.1199564 60.80677,7.965299 80.46355,28.00399 16.43784,16.757228 26.45696,39.775623 26.52345,65.98401 0.153,60.723 -58.74,111.713 -124.985,90.988 -4.997,-1.563 -11.18,-6.657 -16.998,-6.999 -8.131,-0.479 -18.787,5.359 -26.997,7.999 -8.999,2.895 -16.824,5.796 -25.996,8 z m 54.993,-33.996 c 53.495,32.466 117.551,-3.949 122.985,-56.993 4.918,-48.019 -33.424,-90.745 -84.99,-86.989 -58.87,4.287 -94.232,74.559 -57.993,125.984 -3.208,8.791 -6.21,17.788 -8.999,26.997 9.822,-2.844 18.876,-6.455 28.997,-8.999 z"
   id="path1"
   sodipodi:nodetypes="cccsccccccccccc"
   style="fill:#00a63e;fill-opacity:1" />
	
	<path
   fill-rule="evenodd"
   clip-rule="evenodd"
   d="m 188.947,60.143 c 5.627,11.77 14.331,29.179 0,36.996 7.278,15.386 19.311,26.017 34.995,32.996 5.216,-3.45 8.641,-8.691 12.999,-12.998 9.104,3.561 17.614,7.715 24.996,12.998 0.759,17.201 -13.736,23.562 -25.996,22.997 -25.865,-1.19 -61.414,-33.867 -69.991,-57.993 -5.09,-14.315 0.764,-41.695 22.997,-34.996 z"
   id="path3"
   style="fill:#00a63e;fill-opacity:1" />
</g>

</svg>
